<?xml version="1.0" encoding="utf-8"?>
<!-- Generator: Adobe Illustrator 21.0.0, SVG Export Plug-In . SVG Version: 6.00 Build 0)  -->
<svg version="1.1" id="Layer_1" xmlns="http://www.w3.org/2000/svg" xmlns:xlink="http://www.w3.org/1999/xlink" x="0px" y="0px"
	 viewBox="0 0 1280 1024" style="enable-background:new 0 0 1280 1024;" xml:space="preserve">
<style type="text/css">
	.st0{fill:#FFFFFF;}
</style>
<g>
	<path class="st0" d="M595.2,613.7c-11.8-5-22.2-11.9-31-20.7c-9-8.9-16-19.2-21-31c-5-11.8-7.6-24.3-7.6-37.5
		c0-13.6,2.4-26.4,7.4-38.5c4.9-12.1,11.7-22.8,20.4-32c8.9-9.3,19.2-16.4,31-21.6c11.8-5.1,24.6-7.7,38.3-7.7
		c12.6,0,24.7,2.2,36.3,6.6c11.5,4.6,21.4,10.9,29.6,19.1c2.1,2.1,3.2,4.6,3.2,7.5c0,2.4-1,4.5-2.9,6.2c-1.9,1.7-3.9,2.6-5.9,2.6
		c-1.9,0-5.1-1.7-9.7-5l-11.5-8.3c-10.7-6.8-24.2-10.4-40.5-10.7c-10.6,0.1-20.6,2.3-30.1,6.5c-9.5,4.2-17.8,10-24.9,17.4
		c-7.1,7.4-12.7,15.9-16.6,25.6c-4,9.7-5.9,19.7-5.9,30c0,10.7,1.9,21,5.8,30.8c3.9,9.8,9.3,18.4,16.3,25.8
		c7.1,7.5,15.5,13.4,25.2,17.6c9.7,4.2,20.1,6.3,31.4,6.3c10.3,0,20.3-1.9,29.8-5.7c9.5-3.8,18.1-9.4,25.8-16.6
		c2.1-1.1,3.8-1.6,5-1.6c1.9,0,3.8,0.8,5.7,2.5c1.9,1.7,2.9,3.8,2.9,6.3c0,2.8-1.1,5.3-3.2,7.5c-8.1,8.1-17.9,14.4-29.6,18.9
		c-11.8,4.6-23.9,6.8-36.3,6.8C619.5,621.1,607,618.6,595.2,613.7z"/>
	<path class="st0" d="M732,390c-2.3-2.3-3.4-5.1-3.4-8.4c0-3.5,1.1-6.4,3.4-8.7c2.3-2.3,5.2-3.4,8.7-3.4c3.4,0,6.2,1.1,8.5,3.4
		c2.3,2.3,3.4,5.2,3.4,8.7c0,3.2-1.1,6-3.4,8.4c-2.3,2.4-5.1,3.5-8.5,3.5C737.2,393.5,734.3,392.3,732,390z M734.1,616.9
		c-1.8-1.7-2.7-3.9-2.7-6.4V433.8c0-2.7,0.9-4.9,2.6-6.6c1.7-1.7,3.9-2.6,6.4-2.6c2.7,0,4.8,0.9,6.4,2.6c1.6,1.7,2.4,4,2.4,6.6
		v176.6c0,2.6-0.8,4.7-2.5,6.4c-1.7,1.7-3.7,2.6-6.1,2.6C738.1,619.5,735.9,618.6,734.1,616.9z"/>
	<path class="st0" d="M839.4,613.8c-11.9-5-22.4-12.1-31.5-21.2c-9.1-9-16.2-19.5-21.4-31.4c-5.1-11.9-7.7-24.6-7.7-37.9
		c0-13.4,2.5-26.2,7.7-38.3c5.1-12.1,12.2-22.6,21.4-31.6c9.1-9.1,19.6-16.2,31.5-21.2s24.5-7.6,37.8-7.6c19.2,0,35.9,5,50,14.9
		c12.8,9.1,22.9,22.4,30.4,39.9V363.5c0-2.5,0.8-4.7,2.5-6.5c1.7-1.8,3.8-2.7,6.3-2.7c2.5,0,4.7,0.9,6.4,2.7c1.7,1.8,2.6,4,2.6,6.5
		v160.3c-0.1,13.2-2.8,25.7-7.9,37.6c-5.1,11.9-12.2,22.3-21.1,31.3c-9,9-19.5,16-31.4,21c-12,5-24.6,7.6-37.9,7.6
		S851.3,618.8,839.4,613.8z M908.7,597.2c9.9-4.2,18.5-10.1,25.9-17.6c7.3-7.4,12.9-15.9,16.9-25.7c4-9.7,6-20,6-30.7
		c0-11-2-21.4-6-31.2c-4-9.8-9.7-18.4-17.1-25.8c-7.4-7.4-16-13.2-25.9-17.3c-9.9-4.2-20.3-6.2-31.3-6.2c-11,0-21.4,2.1-31.2,6.2
		c-9.8,4.2-18.4,9.9-25.8,17.3c-7.4,7.4-13.1,16-17.2,25.8c-4.1,9.8-6.1,20.2-6.1,31.2c0,10.7,2,21,6.1,30.7
		c4.1,9.7,9.8,18.3,17.2,25.7c7.4,7.5,16,13.4,25.8,17.6c9.8,4.2,20.2,6.3,31.2,6.3C888.4,603.6,898.9,601.5,908.7,597.2z"/>
	<path class="st0" d="M1062.6,613.7c-12-5.1-22.5-12.2-31.5-21.1c-9-9-16-19.5-21.1-31.5c-5.1-12-7.7-24.7-7.7-38
		c0-13.3,2.5-25.9,7.7-38c5.1-12,12.2-22.6,21.1-31.7c9-9,19.5-16,31.5-21.1c12-5.1,24.7-7.7,38-7.7c13.2,0,25.8,2.6,37.9,7.7
		c12.1,5.1,22.7,12.2,31.8,21.1c9,9,16.1,19.5,21.2,31.5c5.2,12,7.8,24.6,7.8,37.8c0,2.6-0.8,4.7-2.3,6.3c-1.5,1.7-3.7,2.5-6.3,2.5
		h-168.8c0.8,9.9,3.4,19.3,7.9,28.2c4.4,8.9,10.2,16.7,17.3,23.4c7.3,6.7,15.4,11.9,24.6,15.6c9.1,3.7,18.8,5.5,29,5.5
		c9.1,0,16.4-0.8,22-2.4c5.5-1.3,11.8-4.1,18.9-8.3c2.4-1.1,4.4-1.6,6-1.6c2.3,0,4.2,1,5.8,2.9c1.6,1.9,2.4,4.1,2.4,6.5
		c0,1.3-0.3,2.7-1,4c-0.7,1.3-1.7,2.4-3.2,3.2c-6.6,4.2-14,7.4-22.4,9.7c-7.4,2-16.9,3-28.6,3
		C1087.3,621.3,1074.6,618.8,1062.6,613.7z M1180.9,516.2c-0.7-10.2-3.2-19.8-7.6-28.9c-4.4-9.1-10.2-17-17.6-23.9
		c-7.4-6.8-15.8-12.2-25.2-15.9c-9.4-3.8-19.3-5.6-29.8-5.6c-10.6,0-20.5,1.9-29.8,5.7s-17.5,9.2-24.8,16
		c-7.1,6.8-12.9,14.8-17.2,23.9c-4.4,9.1-6.9,18.6-7.6,28.7H1180.9z"/>
</g>
<path class="st0" d="M500.5,530.3h-165c-4.1,0-7.5-3.4-7.5-7.5l0,0c0-4.1,3.4-7.5,7.5-7.5h165c4.1,0,7.5,3.4,7.5,7.5l0,0
	C508,526.9,504.6,530.3,500.5,530.3z"/>
<g>
	<path class="st0" d="M159.1,613.8c-11.9-5-22.4-12.1-31.5-21.2c-9.1-9-16.2-19.5-21.4-31.4c-5.1-11.9-7.7-24.6-7.7-37.9
		c0-13.4,2.5-26.2,7.7-38.3c5.1-12.1,12.2-22.6,21.4-31.6c9.1-9.1,19.6-16.2,31.5-21.2s24.5-7.6,37.8-7.6c19.2,0,35.9,5,50,14.9
		c12.8,9.1,22.9,22.4,30.4,39.9V363.5c0-2.5,0.8-4.7,2.5-6.5c1.7-1.8,3.8-2.7,6.3-2.7c2.5,0,4.7,0.9,6.4,2.7c1.7,1.8,2.6,4,2.6,6.5
		v160.3c-0.1,13.2-2.8,25.7-7.9,37.6c-5.1,11.9-12.2,22.3-21.1,31.3c-9,9-19.5,16-31.4,21c-12,5-24.6,7.6-37.9,7.6
		C183.6,621.3,171,618.8,159.1,613.8z M228.4,597.2c9.9-4.2,18.5-10.1,25.9-17.6c7.3-7.4,12.9-15.9,16.9-25.7c4-9.7,6-20,6-30.7
		c0-11-2-21.4-6-31.2c-4-9.8-9.7-18.4-17.1-25.8c-7.4-7.4-16-13.2-25.9-17.3c-9.9-4.2-20.3-6.2-31.3-6.2c-11,0-21.4,2.1-31.2,6.2
		c-9.8,4.2-18.4,9.9-25.8,17.3c-7.4,7.4-13.1,16-17.2,25.8c-4.1,9.8-6.1,20.2-6.1,31.2c0,10.7,2,21,6.1,30.7
		c4.1,9.7,9.8,18.3,17.2,25.7c7.4,7.5,16,13.4,25.8,17.6c9.8,4.2,20.2,6.3,31.2,6.3C208,603.6,218.6,601.5,228.4,597.2z"/>
</g>
<circle class="st0" cx="418.5" cy="522.8" r="20"/>
<g>
</g>
<g>
</g>
<g>
</g>
<g>
</g>
<g>
</g>
<g>
</g>
<g>
</g>
<g>
</g>
<g>
</g>
<g>
</g>
<g>
</g>
<g>
</g>
<g>
</g>
<g>
</g>
<g>
</g>
</svg>
