<?xml version="1.0" encoding="UTF-8" standalone="no"?><!DOCTYPE svg PUBLIC "-//W3C//DTD SVG 1.1//EN" "http://www.w3.org/Graphics/SVG/1.1/DTD/svg11.dtd">
<svg width="100%" height="100%" viewBox="0 0 2987 774" version="1.1" xmlns="http://www.w3.org/2000/svg"
     xml:space="preserve" style="fill-rule:evenodd;clip-rule:evenodd;stroke-linejoin:round;stroke-miterlimit:2;"><path d="M1350.13,722.4c-31.466,-13.333 -59.2,-31.733 -82.666,-55.2c-24,-23.733 -42.667,-51.2 -56,-82.667c-13.334,-31.466 -20.267,-64.8 -20.267,-100c0,-36.266 6.4,-70.4 19.733,-102.666c13.067,-32.267 31.2,-60.8 54.4,-85.334c23.734,-24.8 51.2,-43.733 82.667,-57.6c31.467,-13.6 65.6,-20.533 102.133,-20.533c33.6,0 65.867,5.867 96.8,17.6c30.667,12.267 57.067,29.067 78.934,50.933c5.6,5.6 8.533,12.267 8.533,20c0,6.4 -2.667,12 -7.733,16.534c-5.067,4.533 -10.4,6.933 -15.734,6.933c-5.066,0 -13.6,-4.533 -25.866,-13.333l-30.667,-22.134c-28.533,-18.133 -64.533,-27.733 -108,-28.533c-28.267,0.267 -54.933,6.133 -80.267,17.333c-25.333,11.2 -47.466,26.667 -66.4,46.4c-18.933,19.734 -33.866,42.4 -44.266,68.267c-10.667,25.867 -15.734,52.533 -15.734,80c0,28.533 5.067,56 15.467,82.133c10.4,26.134 24.8,49.067 43.467,68.8c18.933,20 41.333,35.734 67.2,46.934c25.866,11.2 53.6,16.8 83.733,16.8c27.467,0 54.133,-5.067 79.467,-15.2c25.333,-10.134 48.266,-25.067 68.8,-44.267c5.6,-2.933 10.133,-4.267 13.333,-4.267c5.067,0 10.133,2.134 15.2,6.667c5.067,4.533 7.733,10.133 7.733,16.8c0,7.467 -2.933,14.133 -8.533,20c-21.6,21.6 -47.733,38.4 -78.933,50.4c-31.467,12.267 -63.734,18.133 -96.8,18.133c-34.934,0.8 -68.267,-5.866 -99.734,-18.933Z" /><path d="M1714.93,125.867c-6.133,-6.134 -9.066,-13.6 -9.066,-22.4c0,-9.334 2.933,-17.067 9.066,-23.2c6.134,-6.134 13.867,-9.067 23.2,-9.067c9.067,0 16.534,2.933 22.667,9.067c6.133,6.133 9.067,13.866 9.067,23.2c0,8.533 -2.934,16 -9.067,22.4c-6.133,6.4 -13.6,9.333 -22.667,9.333c-9.333,0 -17.066,-3.2 -23.2,-9.333Zm5.6,605.066c-4.8,-4.533 -7.2,-10.4 -7.2,-17.066l0,-471.2c0,-7.2 2.4,-13.067 6.934,-17.6c4.533,-4.534 10.4,-6.934 17.066,-6.934c7.2,0 12.8,2.4 17.067,6.934c4.267,4.533 6.4,10.666 6.4,17.6l0,470.933c0,6.933 -2.133,12.533 -6.667,17.067c-4.533,4.533 -9.866,6.933 -16.266,6.933c-6.667,0.267 -12.534,-2.133 -17.334,-6.667Z" /><path d="M2001.33,722.667c-31.733,-13.334 -59.733,-32.267 -84,-56.534c-24.266,-24 -43.2,-52 -57.066,-83.733c-13.6,-31.733 -20.534,-65.6 -20.534,-101.067c0,-35.733 6.667,-69.866 20.534,-102.133c13.6,-32.267 32.533,-60.267 57.066,-84.267c24.267,-24.266 52.267,-43.2 84,-56.533c31.734,-13.333 65.334,-20.267 100.8,-20.267c51.2,0 95.734,13.334 133.334,39.734c34.133,24.266 61.066,59.733 81.066,106.4l0,-309.067c0,-6.667 2.134,-12.533 6.667,-17.333c4.533,-4.8 10.133,-7.2 16.8,-7.2c6.667,0 12.533,2.4 17.067,7.2c4.533,4.8 6.933,10.666 6.933,17.333l0,427.467c-0.267,35.2 -7.467,68.533 -21.067,100.266c-13.6,31.734 -32.533,59.467 -56.266,83.467c-24,24 -52,42.667 -83.734,56c-32,13.333 -65.6,20.267 -101.066,20.267c-35.467,0 -68.8,-6.667 -100.534,-20Zm184.8,-44.267c26.4,-11.2 49.334,-26.933 69.067,-46.933c19.467,-19.734 34.4,-42.4 45.067,-68.534c10.666,-25.866 16,-53.333 16,-81.866c0,-29.334 -5.334,-57.067 -16,-83.2c-10.667,-26.134 -25.867,-49.067 -45.6,-68.8c-19.734,-19.734 -42.667,-35.2 -69.067,-46.134c-26.4,-11.2 -54.133,-16.533 -83.467,-16.533c-29.333,0 -57.066,5.6 -83.2,16.533c-26.133,11.2 -49.066,26.4 -68.8,46.134c-19.733,19.733 -34.933,42.666 -45.866,68.8c-10.934,26.133 -16.267,53.866 -16.267,83.2c0,28.533 5.333,56 16.267,81.866c10.933,25.867 26.133,48.8 45.866,68.534c19.734,20 42.667,35.733 68.8,46.933c26.134,11.2 53.867,16.8 83.2,16.8c29.867,0.267 57.867,-5.333 84,-16.8Z" /><path d="M2596.53,722.4c-32,-13.6 -60,-32.533 -84,-56.267c-24,-24 -42.666,-52 -56.266,-84c-13.6,-32 -20.534,-65.866 -20.534,-101.333c0,-35.467 6.667,-69.067 20.534,-101.333c13.6,-32 32.533,-60.267 56.266,-84.534c24,-24 52,-42.666 84,-56.266c32,-13.6 65.867,-20.534 101.334,-20.534c35.2,0 68.8,6.934 101.066,20.534c32.267,13.6 60.534,32.533 84.8,56.266c24,24 42.934,52 56.534,84c13.866,32 20.8,65.6 20.8,100.8c0,6.934 -2.134,12.534 -6.134,16.8c-4,4.534 -9.866,6.667 -16.8,6.667l-450.133,0c2.133,26.4 9.067,51.467 21.067,75.2c11.733,23.733 27.2,44.533 46.133,62.4c19.467,17.867 41.067,31.733 65.6,41.6c24.267,9.867 50.133,14.667 77.333,14.667c24.267,0 43.734,-2.134 58.667,-6.4c14.667,-3.467 31.467,-10.934 50.4,-22.134c6.4,-2.933 11.733,-4.266 16,-4.266c6.133,0 11.2,2.666 15.467,7.733c4.266,5.067 6.4,10.933 6.4,17.333c0,3.467 -0.8,7.2 -2.667,10.667c-1.867,3.467 -4.533,6.4 -8.533,8.533c-17.6,11.2 -37.334,19.734 -59.734,25.867c-19.733,5.333 -45.066,8 -76.266,8c-35.467,0.267 -69.334,-6.4 -101.334,-20Zm315.467,-260c-1.867,-27.2 -8.533,-52.8 -20.267,-77.067c-11.733,-24.266 -27.2,-45.333 -46.933,-63.733c-19.733,-18.133 -42.133,-32.533 -67.2,-42.4c-25.067,-10.133 -51.467,-14.933 -79.467,-14.933c-28.266,0 -54.666,5.066 -79.466,15.2c-24.8,10.133 -46.667,24.533 -66.134,42.666c-18.933,18.134 -34.4,39.467 -45.866,63.734c-11.734,24.266 -18.4,49.6 -20.267,76.533l425.6,0Z" /><path d="M1097.6,500l-440,0c-10.933,0 -20,-9.067 -20,-20c0,-10.933 9.067,-20 20,-20l440,0c10.933,0 20,9.067 20,20c0,10.933 -9.067,20 -20,20Z" /><path d="M187.2,722.667c-31.733,-13.334 -59.733,-32.267 -84,-56.534c-24.267,-24 -43.2,-52 -57.067,-83.733c-13.6,-31.733 -20.533,-65.6 -20.533,-101.067c0,-35.733 6.667,-69.866 20.533,-102.133c13.6,-32.267 32.534,-60.267 57.067,-84.267c24.267,-24.266 52.267,-43.2 84,-56.533c31.733,-13.333 65.333,-20.267 100.8,-20.267c51.2,0 95.733,13.334 133.333,39.734c34.134,24.266 61.067,59.733 81.067,106.4l0,-309.067c0,-6.667 2.133,-12.533 6.667,-17.333c4.533,-4.8 10.133,-7.2 16.8,-7.2c6.666,0 12.533,2.4 17.066,7.2c4.534,4.8 6.934,10.666 6.934,17.333l0,427.467c-0.267,35.2 -7.467,68.533 -21.067,100.266c-13.6,31.734 -32.533,59.467 -56.267,83.467c-24,24 -52,42.667 -83.733,56c-32,13.333 -65.6,20.267 -101.067,20.267c-35.2,0 -68.8,-6.667 -100.533,-20Zm184.8,-44.267c26.4,-11.2 49.333,-26.933 69.067,-46.933c19.466,-19.734 34.4,-42.4 45.066,-68.534c10.667,-25.866 16,-53.333 16,-81.866c0,-29.334 -5.333,-57.067 -16,-83.2c-10.666,-26.134 -25.866,-49.067 -45.6,-68.8c-19.733,-19.734 -42.666,-35.2 -69.066,-46.134c-26.4,-11.2 -54.134,-16.533 -83.467,-16.533c-29.333,0 -57.067,5.6 -83.2,16.533c-26.133,11.2 -49.067,26.4 -68.8,46.134c-19.733,19.733 -34.933,42.666 -45.867,68.8c-10.933,26.133 -16.266,53.866 -16.266,83.2c0,28.533 5.333,56 16.266,81.866c10.934,25.867 26.134,48.8 45.867,68.534c19.733,20 42.667,35.733 68.8,46.933c26.133,11.2 53.867,16.8 83.2,16.8c29.6,0.267 57.867,-5.333 84,-16.8Z" /><circle cx="878.933" cy="480" r="53.333" /></svg>
